<svg width="9" height="9" viewBox="0 0 9 9" fill="none" xmlns="http://www.w3.org/2000/svg">
<g clip-path="url(#clip0_6_1109)">
<path d="M4.15315 8.81842C1.59908 5.11578 1.125 4.73578 1.125 3.375C1.125 1.51103 2.63603 0 4.5 0C6.36397 0 7.875 1.51103 7.875 3.375C7.875 4.73578 7.40092 5.11578 4.84685 8.81842C4.67924 9.06054 4.32074 9.06052 4.15315 8.81842ZM4.5 4.78125C5.27665 4.78125 5.90625 4.15166 5.90625 3.375C5.90625 2.59835 5.27665 1.96875 4.5 1.96875C3.72335 1.96875 3.09375 2.59835 3.09375 3.375C3.09375 4.15166 3.72335 4.78125 4.5 4.78125Z" fill="#E33C8C"/>
</g>
<defs>
<clipPath id="clip0_6_1109">
<rect width="9" height="9" fill="white"/>
</clipPath>
</defs>
</svg>
