<svg width="73" height="48" viewBox="0 0 73 48" fill="none" xmlns="http://www.w3.org/2000/svg">
<g clip-path="url(#clip0_6_641)">
<path d="M20.4483 44.1727H20.4533L21.443 44.1777L20.4434 44.1727H20.4483Z" fill="white"/>
<path d="M63.1719 14.3474H61.5289C61.4546 14.3474 61.3705 14.3623 61.2963 14.3821C61.0191 14.4912 60.8212 14.7044 60.7717 15.0018L60.0789 19.3844C60.064 19.4736 60.1481 19.5678 60.2372 19.5678H61.3111C61.415 19.5678 61.514 19.4786 61.5289 19.3844L61.7466 17.9962C61.7664 17.8673 61.8802 17.7731 62.004 17.7731H62.6275C63.7261 17.7731 64.7604 17.3567 64.9633 16.0776C65.1613 14.8333 64.3497 14.3474 63.1719 14.3474ZM63.5183 16.0677C63.4589 16.4742 63.1719 16.7023 62.7661 16.7023H62.1623C62.1029 16.7023 62.0534 16.6825 62.0138 16.6428C61.9743 16.6081 61.9594 16.5387 61.9644 16.4792L62.0683 15.8347C62.0881 15.7009 62.0485 15.6166 61.9644 15.5273C61.9297 15.4926 61.8901 15.4678 61.8357 15.448C61.7862 15.4282 61.7466 15.4232 61.707 15.4232H62.969C63.3946 15.4232 63.5876 15.6562 63.5183 16.0776V16.0677Z" fill="white"/>
<path d="M67.7591 8.31393C67.289 8.1999 66.8535 8.07596 66.4229 7.98672C66.3289 7.96193 66.2448 7.94706 66.1508 7.93219C66.0617 7.91731 65.9676 7.89252 65.8786 7.85286C65.4827 7.06955 65.0521 6.30608 64.6067 5.55747C64.5176 5.39882 64.4236 5.26001 64.3296 5.10632C64.3989 5.14598 64.4731 5.19556 64.5424 5.23522C64.7007 5.32942 64.8888 5.4484 65.0868 5.5773C65.255 5.68141 65.4282 5.78056 65.6014 5.88963C66.5318 6.46968 67.2791 7.30256 67.7542 8.29409V8.31393H67.7591Z" fill="white"/>
<path d="M54.907 14.5308L54.7734 15.3687C54.7536 15.4827 54.6645 15.5571 54.5507 15.5571H52.8186C53.0215 15.5571 53.2194 15.7256 53.1798 15.9438L52.6355 19.3794C52.6305 19.429 52.6008 19.4736 52.5563 19.5034C52.5167 19.5381 52.4672 19.5579 52.4128 19.5579H51.3785C51.324 19.5579 51.2844 19.5381 51.2498 19.5034C51.2152 19.4786 51.2003 19.429 51.2102 19.3794L51.7793 15.7802C51.7991 15.6513 51.7199 15.5571 51.5913 15.5571H50.5124C50.4036 15.5571 50.3293 15.4778 50.3442 15.3687L50.4036 14.9869C50.458 14.635 50.8044 14.3474 51.1558 14.3474H54.7437C54.8575 14.3474 54.9268 14.4218 54.9119 14.5308H54.907Z" fill="white"/>
<path d="M59.8312 14.4565L59.3363 17.5748C59.1235 18.9382 58.0249 19.5678 56.8026 19.5678C55.7237 19.5678 54.7389 19.0175 54.8923 17.8475C54.8973 17.8079 54.9171 17.7583 54.9616 17.7236C54.9962 17.6988 55.0358 17.674 55.0754 17.674H56.1493C56.2186 17.674 56.2631 17.6938 56.3077 17.7236C56.3324 17.7583 56.3621 17.8178 56.377 17.8872C56.3967 18.254 56.6095 18.4474 57.0154 18.4474C57.1589 18.4474 57.2677 18.4276 57.3766 18.378C57.4805 18.3284 57.5647 18.254 57.634 18.1747C57.7032 18.0954 57.7626 17.9962 57.8121 17.8822C57.8517 17.7732 57.8863 17.6591 57.9061 17.5352L57.9408 17.3121C57.6834 17.3666 57.4162 17.3914 57.1242 17.3914C55.7435 17.3914 54.9665 16.737 55.1892 15.3439L55.2585 14.9225C55.2783 14.8134 55.313 14.7192 55.3674 14.635C55.4218 14.5556 55.4812 14.4912 55.5505 14.4367C55.6247 14.3821 55.699 14.3325 55.7831 14.3127C55.8722 14.2879 55.9464 14.2631 56.0157 14.2631H56.5799C56.6887 14.2631 56.758 14.3425 56.7432 14.4515L56.6095 15.3241C56.5155 15.9041 56.7135 16.2412 57.3024 16.2412C57.7428 16.2412 58.0645 16.0578 58.2179 15.6265L58.3317 14.9126C58.3862 14.5457 58.7128 14.2582 59.079 14.2582H59.6828C59.7421 14.2582 59.7867 14.278 59.8065 14.3127C59.8411 14.3524 59.8461 14.402 59.8411 14.4466L59.8312 14.4565Z" fill="white"/>
<path d="M63.4487 21.4914H59.1828C56.8816 21.4914 55.0456 21.779 53.6203 22.6763C53.5312 22.7259 52.5019 23.5885 52.3386 23.7719C51.6952 24.5156 51.1657 25.4674 50.755 26.6969C50.6213 27.1035 50.4976 27.5397 50.3887 28.0107C50.3887 28.0157 50.3838 28.0256 50.3838 28.0306C50.2353 28.6156 50.1166 29.2551 50.0126 29.9442C49.6316 32.2594 49.3544 33.9649 49.686 35.1844C49.7404 35.4175 49.8196 35.6257 49.9285 35.824C50.0324 36.0074 50.1512 36.171 50.2947 36.3297C50.2997 36.3346 50.3145 36.3495 50.3294 36.3545C51.2647 37.2914 53.17 37.693 56.7133 37.693H57.0548C59.7519 37.693 61.3058 36.2702 62.2115 34.0095C62.3946 33.5484 62.5529 33.0279 62.6519 32.4627L61.8502 37.6881H65.0917L66.8831 25.4873C67.2048 23.3852 65.5767 21.4865 63.4536 21.4865L63.4487 21.4914ZM60.7516 28.2735L60.1725 32.2049L59.1333 32.2198H57.4359C54.8427 32.2198 54.9961 31.5604 55.298 29.7112C55.6444 27.4703 56.555 26.9845 58.2722 26.9845H59.643C60.3309 26.9845 60.8505 27.5992 60.7516 28.2784V28.2735Z" fill="white"/>
<path d="M58.228 47.995C45.3561 47.995 5.54785 48 5.54785 48C6.22089 47.9504 21.1366 47.1373 24.8037 46.8498C38.4921 45.8037 53.977 36.2751 51.3343 42.6903C49.3845 47.415 59.8314 44.8271 62.7512 39.5273H66.6707L67.799 31.8727L68.6948 25.755C68.8977 24.4065 68.5809 23.0332 67.799 21.9227C66.9231 14.5408 64.7605 12.3743 64.1666 11.3877C63.7657 10.7432 63.3649 10.1037 62.9591 9.46907C62.8453 9.2906 62.7265 9.10716 62.6077 8.91877C62.0732 9.46907 61.5338 10.0194 60.9994 10.5647C60.6876 10.887 60.3758 11.2043 60.069 11.5265C59.9403 11.3778 59.7374 11.12 59.7275 10.4457C59.7127 9.75166 59.9255 8.60644 60.6579 6.65808C60.747 6.39037 60.8261 6.12761 60.9301 5.8599C60.9845 5.74587 60.9548 5.64672 60.8954 5.55252C60.2719 4.46184 59.6384 3.39099 59.0198 2.30526C58.6685 1.68556 58.5398 1.04106 58.6882 0.346988C58.7377 0.113979 58.8664 -0.00500488 59.0495 -0.00500488C59.2178 -0.00500488 59.4306 0.104063 59.777 0.307327C60.1581 0.530422 60.4748 0.857627 60.6876 1.24432C60.9548 1.70539 61.2023 2.17141 61.4546 2.63247C61.9842 3.61904 62.5186 4.60561 63.1174 5.55252C63.7905 6.60851 64.4091 7.68432 64.9782 8.77996C65.7799 10.3168 71.4463 20.8023 72.634 30.2069C74.9798 48.6891 65.7997 47.995 58.233 47.995H58.228Z" fill="white"/>
<path d="M43.4059 18.6209H38.6996C37.3089 18.6209 35.9134 19.6422 35.7303 21.1543L35.0721 25.5716L33.0728 38.8531L42.8219 38.8382C45.425 38.8382 47.2957 38.3326 48.6615 37.2914C48.6665 37.2766 48.6813 37.2766 48.6962 37.2667C48.6219 37.1774 48.5527 37.0832 48.4933 36.994C48.4339 36.8998 48.3695 36.7957 48.325 36.7015C48.1815 36.4437 47.7312 35.6158 47.7114 34.3615C47.6965 33.4641 47.7608 32.4776 47.9291 31.3423C47.9489 31.2084 47.9786 31.0745 47.9885 30.9407C48.0231 30.7374 48.0578 30.5342 48.0924 30.321C48.1271 30.1078 48.1617 29.8946 48.1963 29.6666C48.2013 29.6319 48.2112 29.5972 48.2161 29.5724L48.231 29.4831C48.2805 29.1708 48.325 28.8684 48.3893 28.5908C48.4141 28.442 48.4438 28.2834 48.4685 28.1396C48.4735 28.1148 48.4834 28.0851 48.4883 28.0603C48.523 27.9264 48.5576 27.7876 48.5823 27.6587L48.6021 27.5893C48.6615 27.3365 48.7259 27.0836 48.7902 26.8407C48.8446 26.6722 48.8941 26.4937 48.9486 26.3251C48.9634 26.2855 48.9733 26.2458 48.9881 26.2012C49.1168 25.8294 49.2455 25.4724 49.389 25.1402C49.4583 24.9717 49.5325 24.7982 49.6117 24.6494C49.681 24.4858 49.7602 24.3371 49.8443 24.1785C50.1709 23.5786 50.5371 23.0481 50.9528 22.5771C51.0766 22.4284 51.1953 22.2896 51.3339 22.1557C49.8542 19.7414 46.9888 18.616 43.4059 18.616V18.6209ZM45.3211 28.6106C45.2666 29.0122 45.1627 29.6319 45.1578 29.6864C44.8311 31.4166 44.1235 32.2247 42.2726 32.2247H39.4122C39.2687 32.2247 39.1746 32.1305 39.1746 31.9917L40.0011 26.5482C40.0555 26.0574 40.5059 25.7302 40.9463 25.7302H42.4557C43.9453 25.7302 45.0439 26.335 45.3062 27.6538C45.3409 27.8174 45.3953 28.0801 45.3211 28.6056V28.6106Z" fill="white"/>
<path d="M10.8727 11.6207H6.16141C4.77079 11.6257 3.37522 12.647 3.20201 14.1541L2.53392 18.5714L0.539551 31.8579L10.2937 31.843C12.9066 31.843 14.7921 31.3274 16.163 30.2714C16.0195 30.0929 15.8957 29.9046 15.7918 29.7062C15.6038 29.3592 15.4652 29.0122 15.3712 28.6404C14.9505 27.039 15.2474 25.2047 15.6631 22.6713C15.8611 21.3576 16.1234 20.2074 16.4648 19.201C16.9548 17.7087 17.5932 16.5288 18.4196 15.5819C18.5433 15.4381 18.6621 15.3043 18.8056 15.1654C17.3259 12.7511 14.4606 11.6207 10.8727 11.6207ZM13.0551 21.6352C12.9957 22.0368 12.8967 22.6515 12.8918 22.711C12.5652 24.4313 11.8575 25.2444 10.0066 25.2444H7.14622C7.00271 25.2444 6.90868 25.1551 6.90868 25.0213L7.73513 19.5728C7.78957 19.0919 8.23991 18.7647 8.6853 18.7647H10.1848C11.6744 18.7647 12.773 19.3695 13.0353 20.6883C13.07 20.8469 13.1244 21.1146 13.0502 21.6401L13.0551 21.6352Z" fill="white"/>
<path d="M30.92 14.4962H26.6492C24.348 14.4962 22.512 14.7837 21.0867 15.681C21.0075 15.7306 20.9283 15.7752 20.8541 15.8397C20.671 15.9636 20.4928 16.1074 20.3246 16.2561H20.3196C20.1365 16.4197 19.9683 16.5883 19.8099 16.7816C19.1567 17.5253 18.637 18.4772 18.2213 19.7067C18.0877 20.1082 17.964 20.5495 17.8551 21.0155C17.8551 21.0304 17.8502 21.0353 17.8502 21.0403C17.7067 21.6253 17.5829 22.2599 17.484 22.9539C17.1029 25.2592 16.8159 26.9746 17.1524 28.1842C17.2068 28.4222 17.286 28.6255 17.3949 28.8238C17.4988 29.0072 17.6176 29.1758 17.7611 29.3344C17.7759 29.3394 17.7809 29.3493 17.7957 29.3592C18.741 30.2962 20.6364 30.6978 24.1896 30.6978H24.5212C27.2232 30.6978 28.7821 29.27 29.6828 27.0142C29.8659 26.5532 30.0144 26.0326 30.1183 25.4625L29.3166 30.6928H32.5581L34.1268 20.024L34.3495 18.4871C34.6762 16.385 33.043 14.4912 30.9249 14.4912L30.92 14.4962ZM28.4802 21.2782L28.401 21.8583L27.9062 25.2146L26.862 25.2295H25.1695C22.5763 25.2295 22.7297 24.5701 23.0316 22.7209C23.1405 22.0318 23.2988 21.5112 23.5215 21.1146C24.0164 20.2223 24.8132 19.9942 26.0009 19.9942H27.3816C28.0695 19.9942 28.5891 20.609 28.4901 21.2882L28.4802 21.2782Z" fill="white"/>
<path d="M25.9517 44.252C25.9517 45.1097 25.254 45.8038 24.3879 45.8038C23.5219 45.8038 22.834 45.1097 22.834 44.252C22.834 43.3943 23.5318 42.6953 24.3879 42.6953C25.2441 42.6953 25.9517 43.3894 25.9517 44.252Z" fill="white"/>
<path d="M7.10646 45.3576C7.10646 46.2153 6.40868 46.9143 5.54263 46.9143C4.67659 46.9143 3.99365 46.2153 3.99365 45.3576C3.99365 44.4999 4.68649 43.8009 5.54263 43.8009C6.39878 43.8009 7.10646 44.4999 7.10646 45.3576Z" fill="white"/>
<path d="M25.6843 34.2425L3.98868 34.3367C2.60796 34.3863 1.27178 34.6639 0.974849 36.6618C0.905566 37.0783 0.232526 41.5748 0.0296249 42.8936C-0.212867 44.5693 1.09362 45.0997 2.6327 45.1592V45.1196C2.69209 43.548 3.96888 42.3086 5.54756 42.3086H5.65643C6.84415 42.3631 7.84876 43.1117 8.25951 44.1578C8.26446 44.1627 8.31889 44.3412 8.35354 44.6684L21.4481 44.1727H20.4484L21.4481 44.1677L21.4531 44.1627V44.019C21.5669 42.5019 22.8239 41.322 24.3531 41.322H24.4669C24.5609 41.327 24.6648 41.3369 24.7589 41.3468C25.9763 41.5253 26.9512 42.4474 27.2036 43.6273C27.2234 43.7066 27.2382 43.7909 27.2432 43.8702C27.2432 43.8702 27.258 43.9744 27.258 44.019C27.263 44.0685 27.2729 44.1082 27.2729 44.1528H29.777C29.777 44.1528 30.9053 36.994 30.9449 36.7015C31.2715 33.8855 27.5302 34.2326 25.6793 34.2326L25.6843 34.2425ZM14.9305 38.9671H3.27605C2.85045 38.9522 2.48919 38.8035 2.55847 38.3474C2.61291 37.9805 2.80096 36.7263 2.81581 36.6122C2.89499 36.0619 3.2711 35.9876 3.65216 35.9727L9.26412 35.9529C9.46207 35.9529 9.73426 35.938 9.99654 35.9677H10.0114L13.8269 35.9529C14.3416 35.9529 15.3759 35.8587 15.2868 36.6321C15.272 36.7114 14.9355 38.9671 14.9355 38.9671H14.9305ZM28.6239 38.9671H16.9744C16.5488 38.9522 16.1875 38.8035 16.2568 38.3474C16.3112 37.9805 16.4993 36.7263 16.5141 36.6122C16.5933 36.0619 16.9645 35.9876 17.3505 35.9727L22.9624 35.9529C23.1604 35.9529 23.4326 35.938 23.6899 35.9677H23.7048L27.5302 35.9529C28.0399 35.9529 29.0792 35.8587 28.9852 36.6321C28.9802 36.7114 28.6338 38.9671 28.6338 38.9671H28.6239Z" fill="white"/>
</g>
<defs>
<clipPath id="clip0_6_641">
<rect width="73" height="48" fill="white"/>
</clipPath>
</defs>
</svg>
