<svg width="14" height="14" viewBox="0 0 14 14" fill="none" xmlns="http://www.w3.org/2000/svg">
<path fill-rule="evenodd" clip-rule="evenodd" d="M12.3479 1.5859C12.4897 1.72771 12.5377 1.93822 12.4715 2.12751L8.8171 12.5686C8.74639 12.7706 8.55951 12.909 8.34564 12.9177C8.13176 12.9264 7.93423 12.8037 7.8473 12.6081L5.84064 8.09313L1.32565 6.08647C1.13005 5.99954 1.00734 5.80201 1.01606 5.58813C1.02479 5.37426 1.16319 5.18738 1.36522 5.11667L11.8063 1.46231C11.9956 1.39606 12.2061 1.44409 12.3479 1.5859ZM6.85882 7.81324L8.26662 10.9808L10.7302 3.94182L6.85882 7.81324ZM9.99196 3.20352L2.953 5.66716L6.12053 7.07495L9.99196 3.20352Z" fill="white"/>
</svg>
