<svg xmlns="http://www.w3.org/2000/svg" version="1.1" xmlns:xlink="http://www.w3.org/1999/xlink" xmlns:svgjs="http://svgjs.dev/svgjs" width="50" height="33"><svg width="50" height="33" viewBox="0 0 50 33" fill="none" xmlns="http://www.w3.org/2000/svg">
<g clip-path="url(#clip0_1_769)">
<path d="M14.0058 30.3687H14.0092L14.6871 30.3721L14.0024 30.3687H14.0058Z" fill="#E13A8D"></path>
<path d="M43.2681 9.86377H42.1428C42.0919 9.86377 42.0343 9.87399 41.9835 9.88763C41.7936 9.96261 41.6581 10.1092 41.6242 10.3137L41.1496 13.3267C41.1394 13.388 41.1971 13.4528 41.2581 13.4528H41.9936C42.0648 13.4528 42.1326 13.3914 42.1428 13.3267L42.2919 12.3723C42.3055 12.2837 42.3834 12.219 42.4682 12.219H42.8953C43.6477 12.219 44.3562 11.9327 44.4951 11.0533C44.6307 10.1978 44.0748 9.86377 43.2681 9.86377ZM43.5054 11.0465C43.4647 11.326 43.2681 11.4828 42.9902 11.4828H42.5766C42.536 11.4828 42.5021 11.4691 42.4749 11.4419C42.4478 11.418 42.4377 11.3703 42.441 11.3294L42.5122 10.8863C42.5258 10.7943 42.4987 10.7363 42.441 10.675C42.4173 10.6511 42.3902 10.6341 42.3529 10.6204C42.319 10.6068 42.2919 10.6034 42.2648 10.6034H43.1291C43.4206 10.6034 43.5528 10.7636 43.5054 11.0533V11.0465Z" fill="#E13A8D"></path>
<path d="M46.4105 5.71597C46.0885 5.63758 45.7902 5.55237 45.4953 5.49102C45.4309 5.47397 45.3733 5.46375 45.3089 5.45352C45.2479 5.4433 45.1835 5.42626 45.1225 5.39899C44.8513 4.86046 44.5564 4.33557 44.2513 3.82091C44.1903 3.71184 44.1259 3.6164 44.0615 3.51074C44.109 3.53801 44.1598 3.57209 44.2073 3.59936C44.3157 3.66412 44.4445 3.74592 44.5801 3.83454C44.6954 3.90612 44.814 3.97428 44.9326 4.04927C45.5699 4.44805 46.0817 5.02066 46.4071 5.70233V5.71597H46.4105Z" fill="#E13A8D"></path>
<path d="M37.6075 9.98988L37.5159 10.5659C37.5024 10.6443 37.4414 10.6954 37.3634 10.6954H36.1771C36.316 10.6954 36.4516 10.8113 36.4245 10.9613L36.0516 13.3233C36.0482 13.3574 36.0279 13.388 35.9974 13.4085C35.9703 13.4324 35.9364 13.446 35.8991 13.446H35.1907C35.1534 13.446 35.1263 13.4324 35.1025 13.4085C35.0788 13.3914 35.0687 13.3574 35.0754 13.3233L35.4652 10.8488C35.4788 10.7602 35.4246 10.6954 35.3364 10.6954H34.5975C34.5229 10.6954 34.4721 10.6409 34.4823 10.5659L34.5229 10.3035C34.5602 10.0615 34.7975 9.86377 35.0381 9.86377H37.4956C37.5736 9.86377 37.621 9.91489 37.6109 9.98988H37.6075Z" fill="#E13A8D"></path>
<path d="M40.9801 9.93883L40.6411 12.0827C40.4954 13.02 39.7429 13.4529 38.9057 13.4529C38.1667 13.4529 37.4922 13.0745 37.5973 12.2702C37.6007 12.2429 37.6142 12.2088 37.6447 12.185C37.6685 12.1679 37.6956 12.1509 37.7227 12.1509H38.4582C38.5057 12.1509 38.5362 12.1645 38.5667 12.185C38.5837 12.2088 38.604 12.2497 38.6142 12.2974C38.6277 12.5497 38.7735 12.6826 39.0514 12.6826C39.1497 12.6826 39.2243 12.6689 39.2989 12.6349C39.37 12.6008 39.4277 12.5496 39.4751 12.4951C39.5226 12.4406 39.5632 12.3724 39.5971 12.294C39.6243 12.219 39.648 12.1406 39.6615 12.0554L39.6853 11.9021C39.509 11.9395 39.326 11.9566 39.126 11.9566C38.1803 11.9566 37.6481 11.5067 37.8007 10.5489L37.8481 10.2592C37.8617 10.1842 37.8854 10.1195 37.9227 10.0615C37.96 10.007 38.0006 9.96268 38.0481 9.92519C38.0989 9.8877 38.1498 9.85362 38.2074 9.83998C38.2684 9.82294 38.3193 9.8059 38.3667 9.8059H38.7531C38.8277 9.8059 38.8752 9.86043 38.865 9.93542L38.7735 10.5353C38.7091 10.9341 38.8447 11.1658 39.248 11.1658C39.5497 11.1658 39.77 11.0397 39.8751 10.7432L39.9531 10.2524C39.9903 10.0002 40.214 9.80249 40.4649 9.80249H40.8784C40.9191 9.80249 40.9496 9.81612 40.9632 9.83998C40.9869 9.86725 40.9903 9.90133 40.9869 9.93201L40.9801 9.93883Z" fill="#E13A8D"></path>
<path d="M43.458 14.7754H40.5361C38.96 14.7754 37.7024 14.9731 36.7262 15.59C36.6652 15.6241 35.9602 16.2171 35.8483 16.3432C35.4077 16.8545 35.045 17.5089 34.7636 18.3542C34.6721 18.6337 34.5874 18.9336 34.5128 19.2574C34.5128 19.2608 34.5094 19.2676 34.5094 19.271C34.4077 19.6732 34.3264 20.1129 34.2552 20.5867C33.9942 22.1784 33.8044 23.3509 34.0315 24.1893C34.0688 24.3495 34.123 24.4927 34.1976 24.629C34.2688 24.7551 34.3501 24.8676 34.4484 24.9767C34.4518 24.9801 34.462 24.9903 34.4721 24.9937C35.1128 25.6379 36.4178 25.914 38.8447 25.914H39.0786C40.9259 25.914 41.9903 24.9358 42.6106 23.3816C42.736 23.0646 42.8445 22.7067 42.9122 22.3181L42.3631 25.9106H44.5833L45.8104 17.5225C46.0307 16.0774 44.9155 14.772 43.4614 14.772L43.458 14.7754ZM41.6106 19.4381L41.2141 22.1409L40.5022 22.1511H39.3396C37.5635 22.1511 37.6685 21.6978 37.8753 20.4265C38.1126 18.8859 38.7363 18.5519 39.9124 18.5519H40.8514C41.3225 18.5519 41.6784 18.9745 41.6106 19.4415V19.4381Z" fill="#E13A8D"></path>
<path d="M39.8821 32.9966C31.0658 32.9966 3.7998 33 3.7998 33C4.26079 32.9659 14.477 32.4069 16.9887 32.2092C26.3644 31.4901 36.9704 24.9392 35.1604 29.3496C33.8249 32.5978 40.9803 30.8186 42.9802 27.1751H45.6648L46.4376 21.9125L47.0511 17.7066C47.1901 16.7795 46.9732 15.8354 46.4376 15.0719C45.8376 9.99679 44.3564 8.50732 43.9496 7.82905C43.6751 7.38596 43.4005 6.94628 43.1226 6.51001C43.0446 6.38731 42.9633 6.2612 42.8819 6.13168C42.5158 6.51001 42.1464 6.88834 41.7803 7.26326C41.5667 7.48481 41.3532 7.70294 41.143 7.92449C41.0549 7.82224 40.9159 7.645 40.9092 7.18146C40.899 6.70429 41.0447 5.91695 41.5464 4.57745C41.6074 4.3934 41.6616 4.21276 41.7328 4.0287C41.7701 3.95031 41.7498 3.88214 41.7091 3.81738C41.282 3.06754 40.8481 2.33133 40.4244 1.58489C40.1838 1.15884 40.0956 0.715752 40.1973 0.238577C40.2312 0.0783833 40.3194 -0.00341797 40.4448 -0.00341797C40.56 -0.00341797 40.7058 0.0715665 40.9431 0.21131C41.2041 0.364688 41.421 0.589641 41.5667 0.855495C41.7498 1.17248 41.9193 1.49286 42.0921 1.80984C42.4548 2.48811 42.8209 3.16638 43.231 3.81738C43.692 4.54337 44.1157 5.28299 44.5055 6.03624C45.0546 7.09284 48.9357 14.3016 49.7492 20.7673C51.3559 33.4738 45.0682 32.9966 39.8855 32.9966H39.8821Z" fill="#E13A8D"></path>
<path d="M29.7303 12.802H26.5068C25.5543 12.802 24.5985 13.5041 24.473 14.5437L24.0222 17.5806L22.6528 26.7116L29.3303 26.7014C31.1133 26.7014 32.3945 26.3537 33.3301 25.638C33.3335 25.6278 33.3436 25.6278 33.3538 25.6209C33.303 25.5596 33.2555 25.4948 33.2148 25.4335C33.1742 25.3687 33.1301 25.2971 33.0996 25.2324C33.0013 25.0551 32.6928 24.4859 32.6793 23.6236C32.6691 23.0067 32.7132 22.3284 32.8284 21.5479C32.842 21.4559 32.8623 21.3639 32.8691 21.2718C32.8928 21.1321 32.9165 20.9923 32.9403 20.8458C32.964 20.6992 32.9877 20.5527 33.0115 20.3959C33.0148 20.372 33.0216 20.3482 33.025 20.3311L33.0352 20.2698C33.0691 20.055 33.0996 19.8471 33.1436 19.6563C33.1606 19.554 33.1809 19.4449 33.1979 19.3461C33.2013 19.3291 33.2081 19.3086 33.2114 19.2916C33.2352 19.1995 33.2589 19.1041 33.2758 19.0155L33.2894 18.9678C33.3301 18.7939 33.3741 18.6201 33.4182 18.4531C33.4555 18.3372 33.4894 18.2145 33.5267 18.0986C33.5368 18.0714 33.5436 18.0441 33.5538 18.0134C33.6419 17.7578 33.73 17.5124 33.8283 17.284C33.8758 17.1681 33.9266 17.0488 33.9809 16.9466C34.0283 16.8341 34.0826 16.7319 34.1402 16.6228C34.3639 16.2104 34.6147 15.8457 34.8995 15.5219C34.9842 15.4196 35.0656 15.3242 35.1605 15.2322C34.147 13.5723 32.1844 12.7986 29.7303 12.7986V12.802ZM31.0421 19.6699C31.0048 19.946 30.9336 20.372 30.9302 20.4095C30.7065 21.599 30.2218 22.1546 28.9541 22.1546H26.9949C26.8966 22.1546 26.8322 22.0898 26.8322 21.9944L27.3983 18.252C27.4356 17.9146 27.744 17.6896 28.0457 17.6896H29.0795C30.0998 17.6896 30.8523 18.1054 31.0319 19.0121C31.0557 19.1245 31.0929 19.3052 31.0421 19.6665V19.6699Z" fill="#E13A8D"></path>
<path d="M7.44711 7.98926H4.22022C3.26774 7.99267 2.31187 8.69479 2.19323 9.73094L1.73564 12.7678L0.369629 21.9023L7.05053 21.8921C8.84024 21.8921 10.1317 21.5376 11.0706 20.8116C10.9723 20.6889 10.8876 20.5594 10.8164 20.4231C10.6876 20.1845 10.5927 19.9459 10.5283 19.6903C10.2401 18.5893 10.4435 17.3282 10.7282 15.5866C10.8638 14.6833 11.0435 13.8926 11.2774 13.2007C11.6129 12.1748 12.0502 11.3636 12.6163 10.7126C12.701 10.6137 12.7823 10.5217 12.8806 10.4263C11.8672 8.76637 9.90458 7.98926 7.44711 7.98926ZM8.94193 14.8742C8.90125 15.1503 8.83346 15.5729 8.83007 15.6138C8.60636 16.7965 8.12165 17.3555 6.85393 17.3555H4.89475C4.79645 17.3555 4.73205 17.2942 4.73205 17.2021L5.29811 13.4563C5.33539 13.1257 5.64385 12.9007 5.94891 12.9007H6.97596C7.99623 12.9007 8.74872 13.3166 8.92837 14.2232C8.9521 14.3323 8.98938 14.5163 8.93854 14.8776L8.94193 14.8742Z" fill="#E13A8D"></path>
<path d="M21.1784 9.96605H18.2532C16.677 9.96605 15.4195 10.1637 14.4433 10.7807C14.389 10.8147 14.3348 10.8454 14.2839 10.8897C14.1585 10.9749 14.0365 11.0738 13.9213 11.176H13.9179C13.7924 11.2885 13.6772 11.4044 13.5687 11.5373C13.1213 12.0486 12.7654 12.703 12.4807 13.5483C12.3892 13.8243 12.3044 14.1277 12.2298 14.4481C12.2298 14.4583 12.2265 14.4617 12.2265 14.4651C12.1282 14.8673 12.0434 15.3036 11.9756 15.7808C11.7146 17.3657 11.518 18.545 11.7485 19.3766C11.7858 19.5402 11.84 19.68 11.9146 19.8163C11.9858 19.9424 12.0671 20.0583 12.1654 20.1674C12.1756 20.1708 12.179 20.1776 12.1892 20.1844C12.8366 20.8286 14.1348 21.1047 16.5685 21.1047H16.7956C18.6464 21.1047 19.7141 20.123 20.331 18.5722C20.4564 18.2553 20.5581 17.8974 20.6293 17.5054L20.0802 21.1013H22.3003L23.3748 13.7664L23.5274 12.7098C23.7511 11.2647 22.6325 9.96265 21.1818 9.96265L21.1784 9.96605ZM19.5073 14.6287L19.4531 15.0275L19.1141 17.335L18.3989 17.3452H17.2397C15.4635 17.3452 15.5686 16.8919 15.7754 15.6206C15.8499 15.1468 15.9584 14.7889 16.1109 14.5163C16.4499 13.9027 16.9956 13.746 17.8091 13.746H18.7548C19.226 13.746 19.5819 14.1686 19.5141 14.6355L19.5073 14.6287Z" fill="#E13A8D"></path>
<path d="M17.7751 30.4233C17.7751 31.0129 17.2972 31.4901 16.704 31.4901C16.1108 31.4901 15.6396 31.0129 15.6396 30.4233C15.6396 29.8336 16.1176 29.353 16.704 29.353C17.2904 29.353 17.7751 29.8302 17.7751 30.4233Z" fill="#E13A8D"></path>
<path d="M4.86741 31.1833C4.86741 31.7729 4.38948 32.2535 3.7963 32.2535C3.20312 32.2535 2.73535 31.7729 2.73535 31.1833C2.73535 30.5936 3.2099 30.113 3.7963 30.113C4.3827 30.113 4.86741 30.5936 4.86741 31.1833Z" fill="#E13A8D"></path>
<path d="M17.5921 23.5418L2.73213 23.6065C1.78643 23.6406 0.871235 23.8315 0.667859 25.2051C0.620404 25.4914 0.159418 28.5828 0.0204449 29.4894C-0.145646 30.6414 0.749209 31.0061 1.80338 31.047V31.0198C1.84405 29.9393 2.71857 29.0872 3.79985 29.0872H3.87442C4.68793 29.1247 5.37602 29.6394 5.65735 30.3586C5.66074 30.362 5.69803 30.4847 5.72175 30.7096L14.6906 30.3688H14.0059L14.6906 30.3654L14.694 30.362V30.2631C14.772 29.2202 15.6329 28.409 16.6803 28.409H16.7583C16.8227 28.4124 16.8939 28.4192 16.9583 28.426C17.7921 28.5487 18.4599 29.1827 18.6327 29.9939C18.6463 30.0484 18.6565 30.1063 18.6599 30.1609C18.6599 30.1609 18.67 30.2324 18.67 30.2631C18.6734 30.2972 18.6802 30.3245 18.6802 30.3551H20.3953C20.3953 30.3551 21.1682 25.4334 21.1953 25.2323C21.419 23.2964 18.8565 23.535 17.5887 23.535L17.5921 23.5418ZM10.2265 26.79H2.24402C1.95252 26.7797 1.70508 26.6775 1.75253 26.3639C1.78982 26.1117 1.91862 25.2494 1.92879 25.171C1.98302 24.7927 2.24063 24.7415 2.50163 24.7313L6.34544 24.7177C6.48102 24.7177 6.66745 24.7074 6.8471 24.7279H6.85727L9.47065 24.7177C9.82317 24.7177 10.5316 24.6529 10.4706 25.1846C10.4604 25.2392 10.2299 26.79 10.2299 26.79H10.2265ZM19.6056 26.79H11.6264C11.3349 26.7797 11.0875 26.6775 11.1349 26.3639C11.1722 26.1117 11.301 25.2494 11.3112 25.171C11.3654 24.7927 11.6197 24.7415 11.884 24.7313L15.7279 24.7177C15.8634 24.7177 16.0499 24.7074 16.2261 24.7279H16.2363L18.8565 24.7177C19.2056 24.7177 19.9174 24.6529 19.853 25.1846C19.8496 25.2392 19.6123 26.79 19.6123 26.79H19.6056Z" fill="#E13A8D"></path>
</g>
<defs>
<clipPath id="SvgjsClipPath1001">
<rect width="50" height="33" fill="white"></rect>
</clipPath>
</defs>
</svg><style>@media (prefers-color-scheme: light) { :root { filter: none; } }
@media (prefers-color-scheme: dark) { :root { filter: none; } }
</style></svg>